# xmcd
#
# Track frame offsets:
# 150
# 24468
# 50686
# 76579
# 95689
# 119159
# 140099
# 159801
# 182401
# 203118
# 225126
# 247432
# 270032
# 290498
#
# Disc length: 4195 seconds
#
# Revision: 0
# Processed by: cddbd v1.4PL0 Copyright (c) Steve Scherf et al.
# Submitted via: Axialis_AX_CDPlayer 2.6
#
DISCID=b910610e
DTITLE=Manà - The Bestia
DYEAR=1900
DGENRE=
TTITLE0=No Ha Parado De Llover
TTITLE1=En el muelle de san blas
TTITLE2=Vivir Sin aire
TTITLE3=Perdido En Un Barco
TTITLE4=Clavado En Un Barco
TTITLE5=De Pies A Cabeza
TTITLE6=Déjame Entrar
TTITLE7=Rayando el sol 
TTITLE8=Corazon Espinado
TTITLE9=Oye mi amor
TTITLE10=Te Lloré Un Río
TTITLE11=Hechicera
TTITLE12=Cómo Te Deseo
TTITLE13=Un Lobo Por Tu Amor
EXTD=
EXTT0=
EXTT1=
EXTT2=
EXTT3=
EXTT4=
EXTT5=
EXTT6=
EXTT7=
EXTT8=
EXTT9=
EXTT10=
EXTT11=
EXTT12=
EXTT13=
PLAYORDER=
